<svg viewBox="0 0 158.41 158.406" xmlns="http://www.w3.org/2000/svg"><g clip-rule="evenodd"><path d="m149.388 79.205c0 38.76-31.424 70.183-70.186 70.183s-70.186-31.423-70.186-70.183c0-38.765 31.424-70.187 70.186-70.187s70.186 31.422 70.186 70.187z" fill="#87ba45" fill-rule="evenodd"/><path d="m156.702 79.205c0 42.802-34.696 77.499-77.498 77.499-42.803 0-77.502-34.697-77.502-77.499 0-42.804 34.699-77.503 77.502-77.503 42.802 0 77.498 34.699 77.498 77.503z" fill="none" stroke="#4281c3" stroke-miterlimit="10" stroke-width="3.404"/><path d="m78.714 99.05h-7.702v-43.469h7.702v43.467zm15.407-43.285 11.19 14.672 11.37-14.672h9.536s-11.983 15.59-15.897 21.09c-.58.186 16.448 22.01 16.448 22.01h-9.537l-11.922-15.957-12.289 15.956h-9.72s12.85-17.105 16.874-22.009c-3.914-5.989-15.773-21.09-15.773-21.09zm-44.568-.184 17.242 43.648h-8.988l-4.403-11.186h-16.688l-4.77 11.186h-8.07l17.607-43.648zm-4.218 11.003-6.052 14.49h11.37z" fill="#fff" fill-rule="evenodd"/></g><path d="m70.038 157.74c-33.193-3.743-61.27-29.262-68.07-61.87-1.359-6.524-1.709-10.016-1.696-16.941.024-12.576 2.485-23.172 7.99-34.4 4.095-8.348 8.603-14.668 15.103-21.168s12.82-11.008 21.168-15.102c14.969-7.341 31.597-9.774 47.823-6.999 29.045 4.97 53.129 25.794 62.072 53.671 5.507 17.165 4.896 36.736-1.661 53.194-8.127 20.399-24.226 36.509-44.585 44.615-6.006 2.392-12.573 4.045-19.505 4.91-4.23.528-14.32.577-18.639.09zm16.47-2.986c16.728-1.628 32.665-8.897 44.907-20.482 23.018-21.785 30.068-56.045 17.508-85.082a76.1 76.1 0 0 0 -61.533-45.445c-4.933-.545-16.241-.265-20.54.509-7.894 1.419-14.612 3.598-21.144 6.857-15.447 7.706-26.886 19.145-34.592 34.592-3.26 6.532-5.438 13.25-6.858 21.143-.773 4.3-1.053 15.608-.508 20.54 3.455 31.29 25.869 57.328 56.107 65.18 4.068 1.057 9.377 2.012 12.867 2.315 3.12.271 10.383.204 13.786-.127z" fill="#4281c3"/><path d="m69.032 157.606c-32.55-4.42-58.765-27.874-66.577-59.562-1.675-6.8-2.182-11.102-2.19-18.612-.003-3.692.19-8.147.428-9.9 2.824-20.714 13.287-39.422 29.087-52.016 11.082-8.832 24.064-14.416 38.75-16.662 5.345-.818 16.126-.81 21.644.016 34.328 5.138 60.992 31.012 66.952 64.97.94 5.36 1.282 16.06.688 21.549-1.618 14.936-7.423 29.176-16.73 41.04-2.737 3.491-10.521 11.074-14.188 13.823-11.38 8.53-25.185 14.03-38.974 15.526-4.426.48-14.786.387-18.891-.17zm22.15-3.473c21.248-3.556 39.246-15.14 51.141-32.919 12.683-18.955 16.13-43.073 9.252-64.737-3.674-11.575-9.437-21.23-17.896-29.986-11.222-11.615-25.527-19.214-41.585-22.091-5.012-.9-14.784-1.224-20.378-.68-35.848 3.493-64.5 32.144-67.991 67.993-.545 5.594-.22 15.365.678 20.377 4.557 25.434 21.368 46.722 44.862 56.811 6.588 2.829 15.087 5.062 22.284 5.855 4.47.492 14.955.16 19.633-.623z" fill="#4381c3"/></svg>