<svg viewBox="0 0 66.6 65.6" xmlns="http://www.w3.org/2000/svg"><circle cx="32.8" cy="32.8" fill="#d70c18" r="32.8"/><path d="m66.6 16.4c0-3-2.5-5.5-5.5-5.5h-4c2.7 3 4.8 6.5 6.3 10.4 1.9-.8 3.2-2.7 3.2-4.9z" fill="#d70c18"/><path d="m23.4 53.5h8.7c2.4 0 4.4-2 4.4-4.4s-2-4.4-4.4-4.4h-8.7c-2.4 0-4.4 2-4.4 4.4 0 2.5 2 4.4 4.4 4.4zm1.4-15.2h20.7c2.7 0 4.9-2.2 4.9-4.9s-2.2-4.9-4.9-4.9h-20.7c-2.7 0-4.9 2.2-4.9 4.9 0 2.6 2.2 4.9 4.9 4.9zm32.4-27.3h-31c-3 0-5.5 2.5-5.5 5.5s2.5 5.5 5.5 5.5h34.9c.8 0 1.6-.2 2.3-.5-1.4-4-3.5-7.5-6.2-10.5z" fill="#fff"/></svg>