<svg viewBox="0 0 61.184 60.719" xmlns="http://www.w3.org/2000/svg"><g fill="#fff" stroke-width="1.333"><text font-family="Source Sans Pro" font-size="12" font-weight="400" x="-420.657" y="167.216"><tspan x="-420.6568 -414.24881 -407.39679 -399.57278 -393.74078 -387.41681 -384.2608 -378.33279 -372.00879 -364.24481 -357.18881 -350.84079 -343.1008 -336.77679 -329.94879 -327.5488 -320.75677 -313.9288 -305.96078 -298.58078 -290.84079 -284.2048 -278.22879 -271.8208 -269.42078 -262.4368 -256.25681" y="167.216">SCHLEIFENBAUER PRODUCTS BV</tspan></text><text font-family="GSGEOZ +HelveticaNeue-Light" font-size="9.333" font-weight="300" x="-253.871" y="167.216"><tspan x="-253.87094 -249.20427" y="167.216">•</tspan></text><text font-family="Source Sans Pro" font-size="12" font-weight="400" x="-246.609" y="167.216"><tspan x="-246.60934 -237.99333 -229.37733 -221.24133 -218.25334 -213.22534 -207.75334 -201.22534 -198.16534 -192.21335 -189.26134 -185.87733 -179.92534 -173.36133 -166.89334 -160.84534 -154.31732 -148.36536 -144.87335 -142.01733 -136.06534 -129.53735" y="167.216">www.schleifenbauer.eu</tspan></text><text font-family="GSGEOZ +HelveticaNeue-Light" font-size="9.333" font-weight="300" x="-127.164" y="167.216"><tspan x="-127.16399 -122.49734" y="167.216">•</tspan></text><text font-family="Source Sans Pro" font-size="12" font-weight="400" x="-119.902" y="167.216"><tspan x="-119.90228 -116.95025 -110.38625 -106.99026 -100.48626 -90.322258 -85.294273 -79.822258 -73.294273 -70.234276 -64.282249 -61.330257 -57.934261 -51.982265 -45.41827 -38.950253 -32.902279 -26.374264 -20.422268 -16.942257 -14.074276 -8.12228 -1.594265" y="167.216">info@schleifenbauer.eu</tspan></text></g><path d="m20.899 59.172c9.805-4.634 14.548-12.628 17.774-21.883 1.355-3.884 3.03-7.659 4.58-11.475 1.415-3.481 4.152-4.961 7.78-5.162 3.082-.172 4.368-1.404 4.303-3.94-.064-2.442-1.493-3.48-4.644-3.564-6.099-.166-10.692 2.537-13.382 7.812-2.553 5.01-4.316 10.417-6.694 15.524-1.692 3.63-3.51 7.287-5.854 10.508-2.869 3.945-7.108 6.05-12.068 5.98-1.413-.02-3.213-.724-4.154-1.743-7.845-8.485-10.468-18.449-7.107-29.549 3.432-11.332 11.291-18.274 22.79-20.936 5.033-1.166 10.11-.976 15.37.674-.36.402-.522.718-.78.85-7.62 3.918-12.116 10.429-15.133 18.176-1.723 4.424-3.472 8.838-5.177 13.268-1.582 4.106-4.396 6.364-8.94 6.409-2.5.025-3.81 1.564-3.682 3.964.13 2.401 1.48 3.417 3.85 3.521 6.134.266 11.014-2.056 13.837-7.474 2.513-4.824 4.239-10.051 6.541-14.995 1.77-3.797 3.56-7.665 5.944-11.079 2.98-4.258 7.46-6.41 12.73-6.313 1.262.023 2.857.66 3.706 1.57 8.06 8.61 10.664 18.745 7.192 30.015-3.418 11.096-11.194 17.958-22.45 20.623-5.19 1.23-10.48.988-16.332-.781" fill="#4cb7dd"/></svg>